<svg xmlns="http://www.w3.org/2000/svg" width="11" height="10" fill="none"><path fill="#59B84A" d="M8.605 6.247c-.35-.363-.805-.363-1.17 0l-.82.816c-.075.075-.136.09-.227.046-.166-.104-.364-.18-.53-.287-.79-.5-1.459-1.136-2.05-1.859-.29-.363-.546-.74-.73-1.179-.03-.09-.03-.136.047-.212.288-.258.545-.528.82-.801.378-.378.378-.816 0-1.194L3.29.927C3.064.7 2.851.472 2.623.26c-.35-.348-.805-.348-1.17 0l-.819.816a1.42 1.42 0 0 0-.426.907c-.046.56.09 1.103.29 1.632.41 1.103 1.032 2.056 1.775 2.947A10.87 10.87 0 0 0 5.92 9.407c.638.302 1.292.543 1.989.59.501.028.927-.105 1.274-.486.228-.273.502-.5.744-.755.364-.377.364-.83 0-1.194z"/></svg>