<svg xmlns="http://www.w3.org/2000/svg" width="33" height="41" fill="none"><path fill="#F43" fill-rule="evenodd" d="M16.969.459C8.159.459.937 7.679.937 16.488c0 4.476 1.734 8.375 4.622 11.263 2.889 2.889 9.677 7.076 10.11 11.553 0 .722.578 1.155 1.155 1.155.722 0 1.156-.578 1.156-1.155.433-4.332 7.22-8.664 10.11-11.553 2.888-2.888 4.62-6.931 4.62-11.263C33 7.679 25.779.459 16.97.459" clip-rule="evenodd"/><path fill="#fff" fill-rule="evenodd" d="M16.969 22.119c3.032 0 5.632-2.455 5.632-5.632 0-3.032-2.455-5.631-5.632-5.631-3.033 0-5.633 2.454-5.633 5.631 0 3.033 2.6 5.632 5.632 5.632" clip-rule="evenodd"/></svg>