<svg xmlns="http://www.w3.org/2000/svg" width="130" height="90" fill="none"><g fill-rule="evenodd" clip-rule="evenodd"><path fill="red" d="M1.41 26.39C2.217 14.036 11.868 4.064 24.275 2.743 37.146 1.46 50.817.766 64.996.766c14.18 0 27.858.694 40.72 1.985 12.408 1.313 22.058 11.285 22.859 23.639a288.97 288.97 0 0 1 0 37.229c-.801 12.354-10.459 22.325-22.859 23.646-12.87 1.283-26.548 1.978-40.72 1.978-14.171 0-27.857-.695-40.727-1.986-12.4-1.32-22.05-11.3-22.86-23.646-.385-6.085-.593-12.3-.593-18.614 0-6.307.208-12.522.593-18.607"/><path fill="#fff" d="M84.606 44.997 53.098 64.055V25.947z"/></g></svg>