<svg xmlns="http://www.w3.org/2000/svg" width="42" height="35" fill="none"><path fill="#3FABE3" d="M16.669 35v-7.027c-2.217-.123-3.894-.53-5.032-1.219-1.14-.689-1.94-1.807-2.4-3.353-.462-1.547-.694-3.76-.694-6.638h8.126V0H0v15.937c0 6.584 1.41 11.406 4.224 14.468C7.042 33.467 11.19 35 16.67 35m25.163 0v-7.027c-2.217-.123-3.894-.513-5.032-1.171-1.14-.659-1.962-1.776-2.47-3.354-.51-1.577-.76-3.805-.76-6.682h8.262V0h-16.76v15.937c0 6.584 1.4 11.406 4.2 14.468C32.075 33.467 36.262 35 41.833 35"/></svg>