<svg xmlns="http://www.w3.org/2000/svg" width="70" height="10" fill="none"><path fill="#FCDD6C" d="m65.019 0 1.49 2.732 3.058.573-2.137 2.26.4 3.087-2.811-1.335-2.811 1.335.4-3.086-2.138-2.261 3.059-.573zM50.16 0l1.49 2.732 3.058.573-2.138 2.26.4 3.087-2.81-1.335-2.812 1.335.4-3.086-2.137-2.261 3.059-.573zM35.3 0l1.49 2.732 3.059.573-2.138 2.26.4 3.087-2.81-1.335-2.812 1.335.4-3.086-2.137-2.261 3.058-.573zM20.44 0l1.49 2.732 3.06.573-2.138 2.26.4 3.087-2.811-1.335-2.811 1.335.4-3.086-2.138-2.261 3.059-.573zM5.583 0l1.49 2.732 3.059.573-2.138 2.26.4 3.087-2.81-1.335-2.812 1.335.4-3.086-2.137-2.261 3.058-.573z"/></svg>