<svg width="13" height="10" viewBox="0 0 13 10" fill="none" xmlns="http://www.w3.org/2000/svg">
<path d="M12.2744 2.15414L11.2593 1.16065C11.1224 1.02669 10.9513 0.959717 10.7574 0.959717C10.5635 0.959717 10.3924 1.02669 10.2556 1.16065L5.37382 5.93832L3.19528 3.79507C3.05841 3.66111 2.88732 3.59414 2.69342 3.59414C2.49952 3.59414 2.32843 3.66111 2.19156 3.79507L1.17643 4.78855C1.02815 4.92251 0.959717 5.08995 0.959717 5.27972C0.959717 5.46948 1.02815 5.63693 1.16502 5.77088L3.85683 8.4053L4.87195 9.39879C5.00883 9.53274 5.17991 9.59972 5.37382 9.59972C5.56772 9.59972 5.73881 9.53274 5.87568 9.39879L6.89081 8.4053L12.2744 3.13646C12.4113 3.00251 12.4797 2.83507 12.4797 2.6453C12.4797 2.45553 12.4113 2.28809 12.2744 2.15414Z" fill="#59B84A"/>
</svg>
