<svg xmlns="http://www.w3.org/2000/svg" width="13" height="14" fill="none"><g clip-path="url(#a)"><path fill="#1C1C1C" d="M11.76 5.823c-.256 0-.491.08-.689.212a1.24 1.24 0 0 0-1.17-.84c-.255 0-.49.08-.687.212a1.24 1.24 0 0 0-1.17-.84c-.226 0-.438.062-.618.168V2.677a1.25 1.25 0 0 0-1.24-1.259c-.684 0-1.239.563-1.239 1.259v5.346l-1.077-.82a1.602 1.602 0 0 0-2.11.153.952.952 0 0 0 0 1.333l4.41 4.48a2.751 2.751 0 0 0 1.97.828h1.45c1.878 0 3.405-1.551 3.405-3.459V7.079a1.246 1.246 0 0 0-1.237-1.256m.617 4.718c0 1.56-1.25 2.83-2.786 2.83H8.14a2.14 2.14 0 0 1-1.533-.645L2.2 8.246a.317.317 0 0 1 0-.444.987.987 0 0 1 1.3-.095l1.57 1.197a.309.309 0 0 0 .496-.25V2.677c0-.348.28-.628.619-.628.34 0 .618.283.618.628v4.718c0 .174.14.315.31.315a.313.313 0 0 0 .311-.315V5.823c0-.348.279-.628.618-.628.34 0 .618.283.618.628v1.572c0 .174.14.315.311.315.171 0 .31-.141.31-.315V6.45c0-.348.28-.628.619-.628.34 0 .618.283.618.628v.944c0 .174.14.315.31.315a.313.313 0 0 0 .311-.315v-.316c0-.348.279-.628.618-.628.34 0 .619.283.619.628z"/><path fill="#59B84A" d="m11.306 2.211 1.066-1.105L11.305 0l-.148.153.813.844H8.047v.218h3.924l-.813.843zM1.065 0 0 1.106 1.065 2.21l.148-.153-.812-.843h3.924V.997H.4l.812-.844z"/></g><defs><clipPath id="a"><path fill="#fff" d="M0 0h13v14H0z"/></clipPath></defs></svg>