<svg xmlns="http://www.w3.org/2000/svg" width="22" height="13" fill="none"><path fill="#fff" d="M17.65 7.106c-.326-.414-.232-.595 0-.961.004-.004 2.694-3.72 2.973-4.98.138-.461 0-.796-.665-.796h-2.205c-.563 0-.82.292-.957.614 0 0-1.122 2.685-2.71 4.426-.511.504-.747.665-1.027.665-.138 0-.35-.161-.35-.622V1.157c0-.552-.158-.796-.622-.796H8.622c-.35 0-.563.256-.563.496 0 .524.795.642.878 2.115V6.16c0 .696-.126.826-.41.826-.748 0-2.567-2.696-3.646-5.783-.22-.599-.433-.843-1-.843H1.676C1.046.361.92.653.92.976c0 .57.748 3.42 3.485 7.185 1.823 2.567 4.39 3.96 6.725 3.96 1.402 0 1.575-.31 1.575-.842 0-2.453-.126-2.685.575-2.685.327 0 .886.161 2.197 1.401 1.496 1.469 1.744 2.126 2.583 2.126h2.205c.63 0 .945-.31.764-.917-.422-1.283-3.253-3.925-3.379-4.098"/></svg>