<svg xmlns="http://www.w3.org/2000/svg" width="22" height="21" fill="none"><g clip-path="url(#a)"><path fill="#fff" d="M10.9 0C5.104 0 .4 4.703.4 10.5c0 2.321.752 4.459 2.022 6.2l-1.337 3.958 4.171-1.301A10.476 10.476 0 0 0 10.9 21c5.797 0 10.5-4.703 10.5-10.5S16.697 0 10.9 0m4.807 16.132c-1.905.763-4.177.024-6.664-1.863C6.557 12.38 4.92 9.724 4.812 7.75 4.7 5.778 6.307 4.783 7.18 4.79c.873.006 1.832 2.797 1.844 3.225.012.434-1.069 1.203-1.112 1.57-.042.366 1.473 2.174 2.114 2.663.635.482 1.948 1.41 2.626 1.325.672-.091 1.118-1.441 1.546-1.527.427-.085 2.76 1.075 2.993 1.375.232.305.207 2.04-1.485 2.712"/></g><defs><clipPath id="a"><path fill="#fff" d="M.4 0h21v21H.4z"/></clipPath></defs></svg>